<svg xmlns="http://www.w3.org/2000/svg" width="1400" height="760" viewBox="0 0 1400 760" role="img" aria-labelledby="title desc">
  <title id="title">Scientific Visual Skills</title>
  <desc id="desc">A clean academic cover showing three scientific visual skill types: infographic, cover visual, and paper figure.</desc>
  <defs>
    <linearGradient id="bg" x1="0" x2="1" y1="0" y2="1">
      <stop offset="0" stop-color="#f7f3ea"/>
      <stop offset="0.55" stop-color="#edf4f3"/>
      <stop offset="1" stop-color="#eef0f6"/>
    </linearGradient>
    <linearGradient id="blue" x1="0" x2="1">
      <stop offset="0" stop-color="#6c8fa8"/>
      <stop offset="1" stop-color="#2d5368"/>
    </linearGradient>
    <linearGradient id="coral" x1="0" x2="1">
      <stop offset="0" stop-color="#eaa18e"/>
      <stop offset="1" stop-color="#c75f55"/>
    </linearGradient>
    <filter id="softShadow" x="-20%" y="-20%" width="140%" height="140%">
      <feDropShadow dx="0" dy="16" stdDeviation="24" flood-color="#2c3b45" flood-opacity="0.14"/>
    </filter>
  </defs>

  <rect width="1400" height="760" fill="url(#bg)"/>

  <g transform="translate(92 84)">
    <text x="0" y="0" font-family="Inter, Arial, sans-serif" font-size="54" font-weight="700" fill="#263238">Scientific Visual Skills</text>
    <text x="2" y="50" font-family="Inter, Arial, sans-serif" font-size="22" fill="#52636d">Three Codex skills for scientific infographics, cover visuals, and publication-grade paper figures.</text>
  </g>

  <g transform="translate(92 190)" filter="url(#softShadow)">
    <rect x="0" y="0" width="374" height="455" rx="18" fill="#ffffff" stroke="#d8e0df"/>
    <rect x="34" y="34" width="150" height="18" rx="9" fill="#6c8fa8"/>
    <rect x="34" y="70" width="304" height="12" rx="6" fill="#dce8e7"/>
    <rect x="34" y="98" width="250" height="12" rx="6" fill="#e8eeee"/>

    <rect x="38" y="150" width="130" height="96" rx="12" fill="#edf4f3" stroke="#cbdcda"/>
    <rect x="206" y="150" width="130" height="96" rx="12" fill="#f6eee8" stroke="#e4d6cc"/>
    <rect x="38" y="284" width="130" height="96" rx="12" fill="#f1f1f7" stroke="#d8d8e8"/>
    <rect x="206" y="284" width="130" height="96" rx="12" fill="#edf3e9" stroke="#d5e2cf"/>

    <circle cx="103" cy="198" r="26" fill="#8fb2bf"/>
    <path d="M82 219 C98 236 122 236 136 218" fill="none" stroke="#2d5368" stroke-width="5" stroke-linecap="round"/>
    <path d="M244 196 C268 168 306 172 318 208 C300 230 264 232 244 196Z" fill="#eaa18e"/>
    <path d="M85 334 L124 309 L142 353 Z" fill="#8da982"/>
    <circle cx="271" cy="331" r="23" fill="#d8b55f"/>
    <circle cx="294" cy="352" r="16" fill="#c75f55"/>

    <text x="34" y="423" font-family="Inter, Arial, sans-serif" font-size="24" font-weight="700" fill="#263238">Infographic</text>
  </g>

  <g transform="translate(514 190)" filter="url(#softShadow)">
    <rect x="0" y="0" width="374" height="455" rx="18" fill="#111926" stroke="#2e4052"/>
    <circle cx="187" cy="220" r="118" fill="#223f5a"/>
    <circle cx="187" cy="220" r="82" fill="#315f78"/>
    <circle cx="187" cy="220" r="46" fill="url(#coral)"/>
    <path d="M95 303 C153 248 221 245 282 300" fill="none" stroke="#e9d8a6" stroke-width="5" stroke-linecap="round"/>
    <path d="M79 156 C139 109 237 106 299 159" fill="none" stroke="#80c7cf" stroke-width="4" stroke-linecap="round" opacity="0.7"/>
    <circle cx="103" cy="139" r="8" fill="#e9d8a6"/>
    <circle cx="287" cy="294" r="10" fill="#80c7cf"/>
    <circle cx="241" cy="111" r="6" fill="#f3a39a"/>

    <rect x="34" y="34" width="118" height="14" rx="7" fill="#f3f0e6" opacity="0.9"/>
    <rect x="34" y="59" width="210" height="10" rx="5" fill="#8aa0af" opacity="0.7"/>
    <text x="34" y="423" font-family="Inter, Arial, sans-serif" font-size="24" font-weight="700" fill="#ffffff">Cover Visual</text>
  </g>

  <g transform="translate(936 190)" filter="url(#softShadow)">
    <rect x="0" y="0" width="374" height="455" rx="18" fill="#ffffff" stroke="#d8e0df"/>
    <rect x="34" y="34" width="172" height="18" rx="9" fill="#2d5368"/>
    <rect x="34" y="70" width="274" height="12" rx="6" fill="#e5ecef"/>

    <circle cx="94" cy="216" r="50" fill="#edf4f3" stroke="#8fb2bf" stroke-width="4"/>
    <circle cx="187" cy="216" r="50" fill="#f7eee9" stroke="#eaa18e" stroke-width="4"/>
    <circle cx="280" cy="216" r="50" fill="#eef1f8" stroke="#7f8db6" stroke-width="4"/>

    <path d="M145 216 L136 207 M145 216 L136 225 M145 216 L136 216" stroke="#455a64" stroke-width="4" fill="none" stroke-linecap="round"/>
    <path d="M238 216 L229 207 M238 216 L229 225 M238 216 L229 216" stroke="#455a64" stroke-width="4" fill="none" stroke-linecap="round"/>
    <path d="M85 216 C96 195 119 200 124 220 C111 238 92 235 85 216Z" fill="#8da982"/>
    <rect x="174" y="197" width="28" height="38" rx="14" fill="#c75f55"/>
    <path d="M263 238 C282 202 305 205 318 233" fill="none" stroke="#d8b55f" stroke-width="8" stroke-linecap="round"/>

    <rect x="212" y="312" width="96" height="70" rx="12" fill="#f6fafb" stroke="#b8ced5"/>
    <circle cx="248" cy="345" r="18" fill="#eaa18e"/>
    <circle cx="272" cy="345" r="10" fill="#8fb2bf"/>
    <path d="M224 310 L188 260" stroke="#8aa0af" stroke-width="3" stroke-dasharray="6 6"/>

    <text x="34" y="423" font-family="Inter, Arial, sans-serif" font-size="24" font-weight="700" fill="#263238">Paper Figure</text>
  </g>
</svg>
